<?xml version="1.0" standalone="no"?>
<!DOCTYPE svg PUBLIC "-//W3C//DTD SVG 20010904//EN"
 "http://www.w3.org/TR/2001/REC-SVG-20010904/DTD/svg10.dtd">
<svg version="1.0" xmlns="http://www.w3.org/2000/svg"
 width="1741.000000pt" height="602.000000pt" viewBox="0 0 1741.000000 602.000000"
 preserveAspectRatio="xMidYMid meet">

<g transform="translate(0.000000,602.000000) scale(0.100000,-0.100000)"
fill="#000000" stroke="none">
<path d="M2175 6010 c-1143 -121 -2027 -1002 -2146 -2139 -17 -163 -7 -473 21
-630 136 -777 620 -1417 1328 -1758 341 -165 707 -242 1092 -230 366 12 664
85 988 244 237 117 445 267 639 464 196 199 317 368 442 619 265 535 320 1139
156 1711 -117 406 -324 750 -632 1050 -367 358 -805 575 -1318 655 -117 18
-455 26 -570 14z m548 -106 c643 -89 1222 -457 1592 -1009 89 -133 214 -390
265 -545 85 -260 114 -471 107 -778 -8 -359 -75 -637 -226 -942 -307 -618
-860 -1062 -1522 -1224 -187 -45 -317 -60 -534 -60 -230 0 -368 17 -570 69
-171 44 -270 81 -441 165 -812 398 -1314 1235 -1281 2135 13 333 82 613 227
912 219 454 576 820 1018 1047 286 146 554 219 912 250 82 7 342 -4 453 -20z"/>
<path d="M2283 5773 c-107 -4 -111 -6 -93 -48 8 -19 9 -19 9 3 1 18 7 22 35
22 30 0 34 -4 40 -31 3 -17 6 -67 6 -110 0 -64 -3 -80 -17 -88 -16 -9 -15 -10
7 -10 32 2 90 16 68 18 -20 1 -31 73 -26 166 3 57 4 60 31 63 21 3 29 -2 36
-20 9 -21 10 -21 10 10 1 17 0 31 -1 30 -2 -1 -49 -4 -105 -5z"/>
<path d="M2479 5747 c-54 -36 -70 -111 -38 -181 35 -76 185 -77 235 -1 23 36
28 95 11 136 -28 67 -140 92 -208 46z m154 -27 c43 -48 33 -151 -18 -184 -78
-51 -169 32 -150 137 17 88 107 114 168 47z"/>
<path d="M2025 5738 c-2 -7 -18 -67 -34 -132 -16 -65 -35 -123 -43 -127 -18
-12 30 -11 57 1 17 7 17 9 3 9 -12 1 -18 9 -18 24 0 36 21 54 70 61 42 6 46 5
63 -23 21 -36 21 -41 0 -41 -9 0 -14 -3 -11 -6 4 -3 27 -2 53 1 43 7 45 8 26
21 -11 8 -50 61 -87 119 -37 58 -69 105 -71 105 -2 0 -6 -6 -8 -12z m64 -142
c-2 -2 -21 -6 -41 -9 -43 -7 -46 0 -27 67 l11 39 30 -47 c17 -26 29 -48 27
-50z"/>
<path d="M2771 5731 c15 -10 15 -18 -3 -103 -11 -51 -26 -103 -34 -115 -13
-21 -12 -22 59 -38 39 -9 79 -18 87 -20 10 -3 20 6 28 27 14 37 9 49 -8 19
-11 -22 -34 -26 -89 -15 -38 8 -39 22 -8 144 19 74 25 85 42 82 13 -3 17 0 10
6 -5 6 -30 13 -55 16 -33 5 -41 4 -29 -3z"/>
<path d="M1795 5691 c-122 -21 -181 -124 -122 -212 28 -42 60 -59 111 -59 47
0 126 36 126 57 0 11 -6 10 -26 -6 -84 -66 -195 -9 -198 100 -1 47 31 84 87
101 37 11 41 10 58 -11 l19 -23 0 31 c0 17 -3 30 -7 30 -5 -1 -26 -5 -48 -8z"/>
<path d="M3000 5683 c0 -3 7 -11 14 -17 13 -9 10 -25 -17 -111 -28 -84 -36
-100 -57 -105 -21 -5 -19 -7 19 -19 24 -7 50 -15 60 -18 12 -3 11 -1 -4 11
-19 16 -19 18 14 117 23 72 38 102 52 108 16 5 10 10 -30 23 -28 9 -51 14 -51
11z"/>
<path d="M3149 5583 c-38 -23 -59 -65 -59 -116 0 -78 71 -139 157 -136 26 1
30 3 13 6 -46 7 -99 35 -116 61 -38 59 -5 160 60 182 56 18 126 -20 126 -69
l0 -25 16 22 c19 28 9 44 -47 73 -46 23 -115 24 -150 2z"/>
<path d="M1308 5477 c-43 -23 -78 -45 -78 -49 0 -4 6 -5 14 -2 16 6 36 -21 89
-118 21 -37 34 -73 31 -82 -9 -23 125 53 144 82 38 58 29 146 -20 187 -44 37
-88 33 -180 -18z m121 13 c19 0 62 -56 71 -91 14 -49 -5 -88 -56 -120 l-37
-22 -16 22 c-9 12 -34 55 -56 96 -39 73 -40 74 -20 89 25 19 76 36 93 30 8 -2
17 -4 21 -4z"/>
<path d="M3417 5375 c-60 -40 -115 -71 -123 -68 -26 10 -14 -5 22 -26 42 -25
51 -26 34 -6 -10 12 -10 18 0 30 22 27 48 27 90 -1 32 -22 40 -32 36 -48 -3
-12 -6 -27 -6 -35 0 -8 -7 -11 -20 -8 -30 8 -24 0 20 -28 44 -28 58 -32 41
-11 -9 10 -7 44 9 140 11 69 20 128 20 131 0 12 -21 0 -123 -70z m77 -12 c-3
-27 -9 -52 -11 -56 -5 -9 -61 23 -63 36 -1 7 68 66 78 67 2 0 0 -21 -4 -47z"/>
<path d="M2205 5354 c-358 -53 -654 -180 -905 -389 -775 -646 -840 -1803 -142
-2527 278 -289 602 -454 1017 -518 199 -30 365 -24 591 24 590 125 1085 569
1278 1147 64 193 81 306 81 544 0 179 -4 227 -23 324 -140 694 -663 1222
-1357 1371 -80 17 -142 22 -305 25 -113 2 -218 1 -235 -1z m345 -35 c348 -32
669 -165 935 -386 l70 -58 -1144 -3 c-629 -1 -1147 0 -1149 3 -13 13 183 159
310 232 201 116 435 190 668 212 125 12 182 12 310 0z m1030 -1403 c0 -1001 1
-989 -55 -1165 -94 -295 -331 -563 -620 -701 -233 -111 -547 -140 -803 -74
-410 106 -737 440 -850 868 l-26 101 -4 948 -3 947 1181 0 1180 0 0 -924z
m-2377 -1024 c71 -335 255 -608 537 -797 76 -51 29 -35 -110 36 -161 84 -286
175 -420 309 -269 269 -436 604 -485 977 -62 467 81 950 392 1317 l58 68 5
-913 c5 -821 8 -922 23 -997z m2517 1803 c271 -341 398 -750 369 -1183 -42
-602 -407 -1138 -957 -1404 -57 -27 -105 -48 -108 -45 -2 2 26 24 63 49 140
93 292 259 377 411 51 91 93 198 124 312 l26 100 4 934 3 934 25 -24 c14 -13
47 -51 74 -84z"/>
<path d="M1612 3728 c4 -702 4 -714 26 -793 65 -233 209 -409 417 -510 78 -38
189 -75 224 -75 8 0 11 210 11 755 l0 755 -165 0 -165 0 0 120 0 120 165 0
165 0 0 170 0 170 -341 0 -340 0 3 -712z"/>
<path d="M2520 4270 l0 -170 165 0 166 0 -3 -117 -3 -118 -162 -3 -163 -2 0
-756 0 -755 38 7 c63 11 187 59 249 95 32 19 101 77 153 129 103 103 155 186
201 325 l24 70 3 733 3 732 -336 0 -335 0 0 -170z"/>
<path d="M1078 5324 c-2 -2 11 -61 28 -131 23 -92 29 -132 22 -141 -21 -25 -2
-20 32 10 19 16 27 27 17 24 -13 -4 -20 2 -28 21 -13 34 -8 45 35 78 33 25 36
26 65 10 30 -15 42 -35 21 -35 -5 0 -10 -5 -10 -11 0 -6 18 2 40 18 39 27 53
47 27 37 -7 -2 -66 24 -130 59 -64 36 -118 63 -119 61z m80 -76 c23 -13 42
-25 42 -28 0 -7 -63 -50 -67 -46 -8 7 -30 96 -25 96 4 0 26 -10 50 -22z"/>
<path d="M3757 5272 c5 -22 -130 -172 -155 -172 -24 0 87 -97 126 -111 95 -32
203 62 171 149 -10 26 -126 152 -140 152 -4 0 -5 -8 -2 -18z m82 -77 c35 -40
40 -82 15 -123 -37 -63 -110 -84 -161 -46 -53 40 -52 45 23 128 38 42 74 76
80 76 7 0 26 -16 43 -35z"/>
<path d="M885 5138 c-45 -24 -154 -145 -120 -132 12 5 39 -15 95 -71 44 -43
77 -82 74 -87 -3 -4 -1 -8 4 -8 20 0 102 103 113 141 31 102 -79 206 -166 157z
m75 -33 c77 -40 93 -120 37 -181 l-33 -36 -78 74 c-73 68 -78 75 -67 96 14 27
68 62 94 62 10 0 31 -7 47 -15z"/>
<path d="M3989 5053 c10 -19 2 -28 -76 -92 -58 -47 -91 -67 -97 -61 -6 6 -14
10 -19 10 -9 0 73 -108 103 -135 15 -13 23 -14 39 -5 12 6 21 15 21 21 0 6 -7
6 -20 -1 -15 -8 -24 -5 -45 17 -46 49 -47 56 -5 91 l38 32 26 -31 c21 -25 24
-34 15 -45 -22 -27 -4 -23 31 7 32 26 33 29 11 26 -15 -1 -30 7 -45 26 l-21
28 35 29 c19 16 38 30 42 30 4 0 20 -18 34 -40 22 -33 24 -43 14 -55 -16 -19
-1 -19 24 0 18 14 18 16 -17 57 -67 81 -98 114 -88 91z"/>
<path d="M698 4938 c-13 -18 -28 -40 -33 -48 -8 -13 -7 -13 8 -1 15 12 28 6
107 -55 50 -37 90 -70 90 -74 0 -3 -5 -11 -12 -18 -8 -8 -8 -12 -1 -12 10 0
63 72 63 86 0 4 -7 1 -15 -6 -12 -10 -30 -1 -100 51 -73 54 -85 67 -80 86 7
31 2 29 -27 -9z"/>
<path d="M4145 4851 c5 -15 -11 -29 -83 -75 -49 -31 -96 -56 -105 -56 -13 0
-6 -18 30 -75 25 -41 51 -75 57 -75 6 1 22 8 36 16 l25 15 -30 -5 c-26 -4 -34
1 -58 35 -16 22 -27 45 -24 52 3 7 44 36 91 66 71 44 89 51 101 41 22 -18 18
-5 -11 40 -29 44 -39 51 -29 21z"/>
<path d="M596 4799 c-36 -43 -36 -100 0 -128 37 -29 48 -27 98 19 24 22 50 40
58 40 21 0 48 -33 48 -59 0 -33 -45 -74 -73 -66 -22 6 -22 6 2 -15 22 -19 25
-19 42 -4 30 27 51 82 44 114 -7 31 -47 70 -72 70 -8 0 -33 -18 -55 -40 -47
-45 -70 -50 -92 -18 -22 31 -20 45 9 74 20 20 28 23 45 14 25 -13 26 -2 3 16
-25 19 -28 18 -57 -17z"/>
<path d="M492 4608 c-5 -7 -24 -41 -41 -75 -31 -63 -42 -101 -18 -70 11 16 20
14 109 -29 81 -39 97 -51 100 -72 3 -21 6 -17 24 26 19 43 19 49 5 40 -13 -8
-39 0 -114 35 l-98 46 14 33 c10 24 21 34 41 36 41 5 58 -15 54 -60 -3 -35 -1
-39 17 -34 11 2 48 10 81 16 50 10 64 17 73 37 10 23 10 25 -6 18 -10 -4 -36
-11 -58 -16 -22 -5 -50 -11 -62 -14 -20 -5 -23 -1 -23 25 0 53 -69 93 -98 58z"/>
<path d="M4328 4543 c-7 -27 -194 -99 -214 -82 -18 15 -18 1 0 -42 13 -31 14
-31 18 -10 2 18 19 29 86 56 45 18 82 31 82 27 0 -3 -35 -42 -77 -86 l-78 -81
120 -10 c120 -11 120 -11 85 -26 -99 -44 -132 -53 -151 -41 -10 7 -19 11 -19
10 0 -2 9 -25 19 -53 15 -40 20 -45 22 -26 3 19 21 30 104 63 93 37 100 38
112 22 16 -22 17 -4 2 29 -9 21 -20 25 -71 31 -34 3 -83 6 -109 6 -27 0 -49 3
-49 6 0 3 33 43 74 88 70 78 73 82 61 110 -10 25 -13 26 -17 9z"/>
<path d="M366 4322 c-13 -42 -27 -86 -31 -97 -7 -19 -7 -19 10 -4 16 16 24 14
120 -18 71 -23 105 -40 107 -51 4 -16 58 130 58 156 0 7 -10 16 -22 21 -29 11
-37 4 -14 -12 16 -12 17 -18 5 -56 -15 -51 -26 -57 -73 -41 -45 14 -48 20 -35
59 8 21 18 31 32 32 19 1 18 3 -8 14 -36 17 -70 20 -43 5 14 -8 14 -16 5 -45
-12 -39 -14 -40 -68 -23 -44 13 -45 14 -23 67 10 27 23 41 37 43 20 3 19 4 -6
15 l-26 12 -25 -77z"/>
<path d="M317 4160 c-10 -28 -14 -70 -6 -70 4 0 9 7 11 15 2 12 22 4 86 -36
46 -28 81 -53 78 -56 -8 -8 -128 -32 -163 -33 -27 0 -31 3 -26 18 4 11 3 14
-4 7 -6 -5 -14 -30 -18 -55 -6 -39 -5 -43 7 -29 8 11 55 25 133 39 66 12 124
25 128 30 5 4 -41 40 -102 80 -60 39 -112 79 -114 88 -3 14 -5 15 -10 2z"/>
<path d="M4221 4133 c2 -28 17 -71 18 -50 1 12 9 17 29 17 39 0 48 -10 59 -62
10 -47 10 -48 -20 -67 -29 -18 -32 -18 -44 -3 -12 15 -12 13 -7 -13 12 -53 22
-81 23 -64 1 9 51 51 112 94 61 42 107 81 102 85 -4 4 -62 18 -127 31 -65 13
-125 29 -132 37 -12 11 -14 11 -13 -5z m199 -63 c23 -6 22 -7 -23 -39 -26 -17
-47 -28 -47 -24 0 4 -4 25 -9 45 l-9 37 32 -6 c17 -4 42 -9 56 -13z"/>
<path d="M4521 3874 c-1 -18 -9 -22 -53 -28 -29 -3 -72 -6 -96 -6 -24 0 -52
-5 -62 -10 -41 -22 -44 -127 -4 -171 15 -16 31 -19 120 -19 89 0 103 -2 107
-17 3 -10 5 5 5 32 1 37 -2 44 -8 29 -7 -18 -20 -22 -88 -28 -112 -9 -141 6
-142 75 0 63 16 74 124 77 83 3 96 2 96 -12 0 -9 3 -16 8 -16 4 0 6 19 4 43
-4 53 -9 78 -11 51z"/>
<path d="M268 3864 c-5 -4 -7 -28 -7 -53 1 -25 3 -38 6 -27 5 17 12 18 86 12
123 -10 147 -16 147 -35 0 -14 2 -14 10 -1 5 8 10 33 10 55 -1 33 -2 37 -11
22 -10 -17 -20 -18 -103 -12 -109 8 -124 11 -128 31 -2 9 -6 12 -10 8z"/>
<path d="M250 3681 c0 -38 2 -42 13 -29 9 11 36 17 100 21 48 3 87 1 87 -3 0
-4 -43 -43 -95 -86 -91 -76 -95 -81 -94 -119 0 -34 2 -37 9 -17 9 21 15 22
119 22 96 0 110 -2 114 -17 3 -10 5 2 5 27 0 25 -2 38 -5 29 -3 -13 -24 -17
-100 -22 -53 -4 -98 -5 -100 -3 -2 2 43 45 101 96 59 50 106 96 106 101 0 5
-53 9 -120 9 -103 0 -120 2 -129 18 -8 13 -10 8 -11 -27z"/>
<path d="M4280 3529 c0 -24 -3 -67 -6 -95 l-6 -51 31 -5 c34 -5 43 7 11 15
-16 4 -20 13 -20 49 0 69 3 71 120 63 88 -7 103 -10 107 -26 10 -35 23 -8 22
44 0 41 -2 47 -9 30 -11 -26 -4 -25 -128 -13 -51 5 -100 14 -108 21 -12 10
-14 5 -14 -32z"/>
<path d="M272 3338 c10 -48 18 -61 18 -30 0 17 10 22 53 32 111 24 133 24 156
1 24 -24 30 -101 9 -119 -10 -8 -164 -42 -191 -42 -4 0 -7 7 -7 15 0 8 -4 15
-9 15 -4 0 -4 -23 2 -52 8 -39 12 -47 18 -32 5 16 26 24 103 38 74 14 100 23
111 39 32 45 8 143 -40 165 -18 8 -45 8 -107 -3 -103 -18 -108 -18 -108 0 0 8
-4 15 -9 15 -5 0 -5 -18 1 -42z"/>
<path d="M4247 3259 c-10 -50 -17 -93 -15 -94 2 -2 17 -6 33 -10 l30 -7 -23
19 c-21 17 -22 23 -13 62 5 23 11 45 14 48 3 2 26 1 51 -2 40 -6 46 -10 46
-32 0 -34 -19 -66 -36 -59 -8 3 -14 1 -14 -4 0 -6 8 -10 18 -10 9 0 28 -3 42
-6 18 -4 21 -3 11 4 -10 7 -12 21 -8 47 3 21 8 39 10 42 3 2 25 -1 50 -8 45
-11 46 -12 40 -43 -8 -45 -21 -66 -41 -67 -13 0 -12 -3 6 -11 12 -6 25 -8 28
-5 4 3 12 37 20 74 8 37 16 79 19 93 5 24 5 24 -9 6 -15 -18 -18 -18 -108 -1
-101 19 -132 31 -123 46 4 5 3 9 -2 9 -4 0 -16 -41 -26 -91z"/>
<path d="M2860 1797 c-44 -13 -66 -23 -53 -25 17 -3 25 -17 42 -80 34 -129 34
-131 20 -149 -12 -14 -11 -15 11 -8 14 5 54 15 90 24 55 14 66 20 68 40 2 13
-1 28 -7 34 -8 8 -11 4 -11 -15 0 -20 -7 -29 -31 -37 -62 -21 -75 -16 -86 36
-6 27 -10 49 -8 51 2 2 22 6 44 9 35 5 41 3 41 -12 0 -10 3 -16 6 -13 3 3 2
22 -2 42 -5 30 -8 34 -18 21 -6 -8 -26 -19 -44 -24 -38 -11 -44 -3 -46 57 -1
35 1 37 42 46 37 8 45 6 58 -10 15 -18 15 -18 10 -1 -3 10 -6 23 -6 28 0 14
-37 9 -120 -14z"/>
<path d="M1930 1783 c-98 -51 -88 -194 17 -239 38 -17 123 -19 123 -3 0 6 -8
8 -20 4 -28 -9 -93 12 -117 37 -66 71 -23 198 68 198 42 0 88 -17 90 -34 1 -6
1 -18 0 -26 -1 -11 3 -10 14 4 21 27 19 33 -16 51 -49 26 -118 29 -159 8z"/>
<path d="M2153 1753 c19 -5 21 -25 10 -148 -5 -67 -9 -78 -27 -83 -20 -6 -20
-6 4 -13 14 -4 41 -7 60 -7 32 -1 33 0 11 9 -21 8 -23 14 -17 47 3 20 6 45 6
56 0 16 6 17 73 11 39 -4 74 -9 76 -10 1 -2 0 -27 -4 -55 -5 -40 -12 -53 -29
-60 -16 -6 -7 -9 37 -11 31 -2 57 -1 57 4 0 4 -7 7 -15 7 -17 0 -19 40 -8 153
5 57 10 70 27 77 20 8 20 9 1 9 -11 1 -38 4 -60 6 -36 5 -38 4 -17 -7 19 -10
23 -17 18 -41 -3 -16 -6 -37 -6 -46 0 -14 -10 -15 -69 -11 -38 3 -72 8 -76 11
-11 12 7 89 21 89 8 0 14 5 14 10 0 6 -23 9 -52 9 -29 -1 -45 -3 -35 -6z"/>
<path d="M2595 1750 c-16 -4 -22 -8 -13 -9 9 0 19 -9 22 -18 11 -41 27 -203
20 -214 -5 -9 11 -10 62 -5 108 11 114 14 114 47 0 34 -17 39 -22 7 -2 -18
-12 -24 -46 -31 -24 -5 -49 -6 -56 -4 -8 3 -18 45 -25 108 -12 96 -11 104 5
116 16 12 16 13 -7 12 -13 -1 -37 -5 -54 -9z"/>
<path d="M2450 1740 c0 -5 7 -10 15 -10 11 0 15 -11 15 -42 0 -24 3 -73 6
-110 7 -65 6 -68 -17 -77 -19 -8 -12 -10 36 -10 46 0 55 2 38 9 -22 9 -23 14
-23 124 0 101 2 115 18 119 9 3 -7 5 -35 6 -30 0 -53 -3 -53 -9z"/>
<path d="M3851 649 c-129 -26 -200 -161 -143 -269 25 -46 69 -66 182 -84 113
-18 140 -39 140 -109 0 -80 -66 -147 -145 -147 -95 0 -155 37 -155 95 0 24 -5
35 -15 35 -11 0 -15 -11 -15 -39 0 -21 -3 -52 -6 -68 -6 -30 -5 -30 60 -48
174 -47 342 42 354 188 8 103 -37 147 -171 167 -149 23 -188 54 -172 136 14
77 61 114 143 114 69 0 115 -32 122 -85 8 -61 27 -54 35 14 4 33 4 64 1 69
-15 24 -152 44 -215 31z"/>
<path d="M7192 649 c-87 -15 -148 -47 -201 -105 -59 -64 -81 -124 -81 -215 0
-139 75 -252 197 -300 120 -46 359 -20 378 42 10 30 4 31 -46 6 -36 -18 -61
-22 -139 -22 -88 0 -99 2 -150 31 -100 57 -143 138 -143 269 0 88 30 162 84
209 47 40 97 56 175 56 115 0 174 -34 174 -102 0 -66 25 -46 36 30 6 37 10 69
8 71 -7 8 -119 30 -177 35 -34 2 -86 0 -115 -5z"/>
<path d="M9037 650 c-106 -19 -189 -78 -239 -173 -20 -36 -23 -57 -23 -147 0
-121 19 -178 82 -242 57 -59 122 -82 228 -82 76 -1 98 3 146 26 110 51 177
137 198 253 28 154 -43 295 -172 343 -64 24 -156 33 -220 22z m127 -44 c110
-33 167 -119 174 -262 6 -111 -15 -182 -71 -238 -106 -106 -276 -80 -359 55
-43 69 -61 208 -37 293 36 130 157 193 293 152z"/>
<path d="M10685 651 c-125 -20 -235 -106 -270 -212 -27 -80 -17 -198 21 -268
60 -112 166 -166 324 -165 109 0 204 29 215 65 10 30 4 31 -46 6 -64 -32 -215
-32 -275 0 -66 35 -101 70 -130 130 -24 48 -28 69 -28 137 1 178 93 276 260
276 115 0 174 -34 174 -102 0 -66 25 -46 36 30 6 37 10 68 10 69 -1 1 -27 9
-57 17 -75 19 -173 26 -234 17z"/>
<path d="M5524 628 c-8 -27 -176 -411 -223 -509 -26 -56 -36 -68 -61 -73 -17
-3 -30 -11 -30 -18 0 -10 26 -13 100 -13 68 0 100 4 100 11 0 13 -23 24 -51
24 -27 0 -24 26 11 104 l29 66 130 0 c113 0 130 -2 136 -17 4 -10 18 -46 31
-81 26 -66 26 -64 -28 -76 -16 -4 -28 -13 -28 -22 0 -11 5 -14 16 -10 9 3 63
6 120 6 105 0 129 9 74 29 -35 12 -49 39 -196 388 -65 156 -93 212 -106 213
-9 0 -20 -10 -24 -22z m60 -235 c25 -62 46 -117 46 -123 0 -6 -39 -10 -105
-10 -58 0 -105 3 -105 7 0 21 104 253 111 246 4 -4 28 -58 53 -120z"/>
<path d="M7856 602 c-28 -69 -171 -392 -211 -477 -30 -62 -39 -73 -65 -78 -16
-4 -30 -12 -30 -19 0 -10 25 -13 102 -11 107 2 143 17 68 29 -39 6 -42 9 -37
34 3 15 17 52 31 83 l25 57 129 0 130 0 31 -76 c32 -80 32 -94 1 -94 -27 0
-50 -11 -50 -24 0 -8 37 -11 120 -11 126 0 148 9 88 36 -31 13 -41 34 -158
306 -84 197 -130 293 -140 293 -9 0 -23 -20 -34 -48z m68 -207 c25 -60 46
-115 46 -122 0 -10 -27 -13 -105 -13 -58 0 -105 3 -105 7 0 20 105 252 111
245 4 -4 28 -56 53 -117z"/>
<path d="M11360 641 c0 -10 -170 -400 -223 -512 -32 -66 -41 -77 -67 -82 -16
-4 -30 -12 -30 -19 0 -10 25 -13 102 -11 107 2 143 17 68 29 -39 6 -42 9 -37
34 3 15 17 52 31 83 l25 57 129 0 130 0 31 -76 c32 -80 32 -94 1 -94 -27 0
-50 -11 -50 -24 0 -8 37 -11 120 -11 84 0 120 3 120 12 0 6 -14 16 -30 22 -35
12 -48 37 -196 388 -67 162 -93 213 -106 213 -10 0 -18 -4 -18 -9z m54 -248
c25 -61 46 -117 46 -122 0 -7 -38 -11 -105 -11 -58 0 -105 3 -105 7 0 20 105
252 111 245 4 -4 28 -57 53 -119z"/>
<path d="M15126 428 c-150 -344 -165 -371 -203 -382 -58 -16 -35 -25 72 -28
78 -2 105 0 105 9 0 7 -12 15 -27 19 -61 13 -59 4 -16 112 l26 62 131 0 131 0
28 -73 c15 -39 27 -77 27 -83 0 -6 -18 -14 -41 -18 -23 -4 -39 -11 -37 -17 6
-17 238 -18 238 -2 0 7 -11 15 -25 19 -32 8 -27 -2 -166 324 -66 155 -123 276
-131 278 -10 2 -45 -66 -112 -220z m148 -45 c25 -62 46 -115 46 -118 0 -3 -47
-5 -105 -5 -80 0 -105 3 -105 13 0 8 15 49 34 93 19 43 42 97 51 119 19 47 16
52 79 -102z"/>
<path d="M0 625 c0 -10 10 -15 34 -15 19 0 38 -6 43 -12 4 -7 10 -120 13 -250
5 -218 7 -239 26 -265 66 -91 286 -110 392 -34 69 50 75 76 81 331 l6 225 37
3 c25 2 38 8 38 18 0 11 -20 14 -105 14 -85 0 -105 -3 -105 -14 0 -10 13 -16
38 -18 37 -3 37 -3 44 -58 9 -83 9 -277 -2 -349 -11 -77 -40 -113 -106 -131
-56 -16 -165 -8 -199 14 -56 37 -60 53 -63 277 -4 235 -1 249 53 249 24 0 35
5 35 15 0 13 -21 15 -130 15 -109 0 -130 -2 -130 -15z"/>
<path d="M730 625 c0 -10 10 -15 28 -15 51 0 52 -4 52 -287 0 -249 -1 -263
-19 -273 -11 -5 -29 -10 -41 -10 -12 0 -20 -5 -18 -11 5 -15 198 -18 198 -3 0
7 -15 15 -34 18 -29 6 -34 11 -40 44 -3 20 -6 131 -6 246 0 178 2 207 14 197
8 -7 90 -105 183 -218 194 -238 249 -299 281 -308 l22 -6 1 278 c1 153 4 289
8 303 5 19 14 26 39 28 20 2 32 9 32 18 0 11 -20 14 -101 14 -76 0 -100 -3
-97 -12 3 -7 19 -14 36 -16 23 -2 33 -9 37 -25 3 -12 4 -119 3 -237 l-3 -215
-127 153 c-70 84 -163 197 -205 252 l-78 100 -82 0 c-67 0 -83 -3 -83 -15z"/>
<path d="M1500 626 c0 -10 13 -16 37 -18 35 -3 38 -6 46 -43 5 -22 7 -143 5
-268 -3 -213 -4 -230 -22 -243 -11 -8 -30 -14 -43 -14 -13 0 -23 -6 -23 -12 0
-10 33 -13 130 -13 89 0 130 4 130 11 0 6 -18 14 -39 18 -22 3 -41 13 -45 22
-11 28 -7 504 4 525 8 13 21 19 45 19 24 0 35 5 35 15 0 13 -21 15 -130 15
-106 0 -130 -3 -130 -14z"/>
<path d="M1810 625 c0 -9 9 -15 24 -15 13 0 28 -6 33 -12 10 -13 215 -523 228
-565 4 -15 14 -23 28 -23 19 0 34 30 121 248 143 356 141 352 171 352 16 0 25
6 25 15 0 12 -18 15 -100 15 -80 0 -100 -3 -100 -14 0 -10 13 -16 38 -18 34
-3 37 -5 36 -33 -2 -31 -154 -435 -165 -435 -10 0 -179 435 -179 462 0 4 18 8
40 8 29 0 40 4 40 15 0 13 -20 15 -120 15 -100 0 -120 -2 -120 -15z"/>
<path d="M2490 625 c0 -10 10 -15 33 -15 18 0 38 -5 45 -12 9 -9 12 -80 12
-257 0 -136 -3 -256 -6 -268 -4 -16 -17 -24 -40 -29 -19 -3 -34 -11 -34 -18 0
-12 453 -16 466 -4 4 4 9 40 12 79 4 58 2 71 -9 67 -7 -2 -18 -24 -24 -47 -5
-23 -18 -47 -27 -52 -10 -5 -70 -8 -135 -7 l-118 3 0 125 0 125 82 3 c101 3
123 -6 123 -53 0 -24 5 -35 15 -35 12 0 15 18 15 105 0 108 -10 133 -26 68
l-9 -38 -97 -3 -98 -3 0 120 0 119 53 4 c80 5 188 -7 198 -23 5 -8 9 -29 9
-46 0 -18 5 -33 10 -33 13 0 17 12 24 83 l6 57 -240 0 c-207 0 -240 -2 -240
-15z"/>
<path d="M3060 625 c0 -10 11 -15 35 -15 24 0 37 -6 45 -19 11 -21 14 -456 4
-510 -6 -27 -12 -32 -45 -37 -22 -4 -39 -12 -39 -18 0 -7 41 -11 130 -11 89 0
130 4 130 11 0 6 -18 14 -39 18 -22 3 -41 13 -45 22 -10 26 -7 508 4 524 13
20 137 21 174 0 55 -29 72 -108 36 -167 -27 -45 -60 -63 -124 -70 -31 -3 -56
-8 -56 -10 0 -2 29 -41 64 -86 36 -45 91 -117 123 -161 l58 -78 63 -2 c40 -1
62 3 62 10 0 7 -8 14 -18 16 -17 5 -232 273 -232 289 0 4 12 9 28 12 35 7 90
44 115 79 30 40 33 115 7 156 -34 55 -65 62 -285 62 -167 0 -195 -2 -195 -15z"/>
<path d="M4172 628 c3 -7 22 -15 44 -18 l39 -5 3 -270 c3 -298 3 -295 -61
-295 -17 0 -27 -5 -25 -11 6 -17 258 -18 258 -1 0 6 -10 12 -23 12 -13 0 -31
6 -40 12 -16 12 -17 38 -15 283 l3 270 38 3 c24 2 37 8 37 18 0 11 -24 14
-131 14 -100 0 -130 -3 -127 -12z"/>
<path d="M4490 626 c0 -9 11 -16 33 -18 32 -3 32 -4 40 -68 5 -36 6 -157 2
-270 -5 -190 -7 -206 -25 -219 -45 -31 -24 -36 153 -35 151 1 179 4 228 23
119 46 203 160 215 292 12 125 -38 223 -140 277 -50 27 -54 27 -278 30 -199 3
-228 2 -228 -12z m420 -47 c60 -26 79 -45 106 -104 43 -92 28 -253 -31 -331
-49 -65 -162 -100 -277 -88 l-58 7 0 268 0 268 43 4 c71 7 170 -4 217 -24z"/>
<path d="M5930 626 c0 -9 11 -16 33 -18 l32 -3 3 -271 2 -271 -26 -18 c-14 -9
-23 -19 -21 -22 3 -2 83 -5 179 -5 155 -1 179 1 229 21 79 30 142 88 181 169
30 60 33 75 33 152 0 75 -4 91 -30 139 -30 54 -61 83 -125 117 -31 17 -64 19
-262 22 -199 3 -228 2 -228 -12z m430 -54 c79 -39 112 -95 118 -201 11 -185
-59 -286 -216 -312 -32 -5 -83 -6 -114 -3 l-58 7 0 268 0 268 38 4 c80 10 176
-3 232 -31z"/>
<path d="M8210 570 c0 -53 3 -70 14 -70 9 0 16 16 20 44 8 52 15 56 106 56 62
0 68 -2 74 -22 8 -30 8 -442 0 -491 -6 -34 -10 -38 -45 -43 -22 -4 -39 -12
-39 -18 0 -15 253 -11 258 4 2 5 -8 10 -23 10 -14 0 -35 5 -46 10 -18 10 -19
24 -19 280 l0 270 73 0 c39 0 78 -4 85 -9 8 -4 16 -27 19 -50 4 -25 11 -41 19
-41 11 0 14 17 14 70 l0 70 -255 0 -255 0 0 -70z"/>
<path d="M9490 625 c0 -10 11 -15 35 -15 54 0 57 -19 53 -299 -3 -240 -3 -244
-25 -259 -50 -32 -29 -37 175 -36 279 0 247 -9 258 79 9 68 8 75 -7 75 -12 0
-19 -11 -24 -38 -11 -67 -11 -67 -160 -70 l-135 -4 0 251 c0 138 4 261 10 275
8 21 16 26 45 26 24 0 35 5 35 15 0 13 -21 15 -130 15 -109 0 -130 -2 -130
-15z"/>
<path d="M10062 628 c3 -7 22 -15 44 -18 l39 -5 0 -275 0 -275 -43 -9 c-75
-17 -39 -29 91 -30 95 -1 127 2 127 12 0 6 -10 12 -23 12 -13 0 -31 6 -40 12
-16 12 -17 38 -15 283 l3 270 38 3 c24 2 37 8 37 18 0 11 -24 14 -131 14 -100
0 -130 -3 -127 -12z"/>
<path d="M11950 625 c0 -10 10 -15 30 -15 49 0 52 -17 48 -292 -3 -247 -3
-251 -25 -266 -49 -32 -28 -37 140 -36 89 0 178 4 197 9 95 21 192 102 233
193 13 30 22 76 25 127 5 102 -19 167 -86 225 -69 62 -112 70 -354 70 -178 0
-208 -2 -208 -15z m401 -35 c52 -14 114 -72 136 -128 26 -69 23 -190 -7 -260
-28 -64 -84 -115 -148 -133 -64 -18 -201 -17 -213 2 -10 17 -12 499 -1 516 14
23 149 24 233 3z"/>
<path d="M12680 626 c0 -10 13 -16 37 -18 35 -3 38 -6 45 -43 9 -50 8 -380 0
-455 -7 -51 -9 -56 -39 -65 -18 -5 -33 -14 -33 -20 0 -10 454 -15 463 -5 2 3
8 38 11 78 6 60 5 72 -8 72 -9 0 -17 -15 -21 -40 -11 -66 -20 -70 -161 -70
l-124 0 0 130 0 130 86 0 c104 0 124 -9 124 -55 0 -24 5 -35 15 -35 12 0 15
18 15 106 0 80 -3 105 -12 102 -7 -3 -15 -20 -18 -39 l-5 -34 -103 -3 -104 -3
4 115 c1 63 6 117 10 121 8 8 187 8 221 0 22 -6 26 -13 29 -48 4 -58 25 -59
33 0 3 26 8 58 11 71 l4 22 -240 0 c-202 0 -240 -2 -240 -14z"/>
<path d="M13242 628 c3 -7 18 -15 34 -16 54 -7 54 -5 54 -279 l0 -254 -25 -25
c-14 -14 -25 -26 -25 -28 0 -6 395 -14 422 -9 24 4 28 11 33 52 4 25 9 59 12
74 4 24 2 28 -13 25 -12 -2 -21 -17 -26 -43 -12 -60 -25 -65 -164 -65 l-121 0
-7 37 c-7 47 -6 285 3 413 l6 95 38 3 c24 2 37 8 37 18 0 11 -24 14 -131 14
-100 0 -130 -3 -127 -12z"/>
<path d="M14022 628 c3 -7 18 -15 34 -16 54 -7 54 -5 54 -277 0 -140 -3 -261
-6 -269 -4 -9 -23 -19 -45 -22 -73 -12 -35 -26 74 -27 73 -1 107 2 107 9 0 6
-17 14 -39 18 -29 4 -40 12 -45 28 -9 36 -7 453 3 443 4 -6 62 -121 127 -258
65 -136 123 -246 128 -244 5 2 33 55 61 118 28 63 84 179 122 259 l71 145 1
-237 c1 -225 0 -238 -18 -248 -11 -5 -29 -10 -40 -10 -12 0 -21 -6 -21 -12 0
-10 32 -13 125 -13 93 0 125 3 125 13 0 6 -10 12 -23 12 -13 0 -32 6 -42 14
-17 12 -19 32 -23 212 -2 110 0 231 5 269 l8 70 38 3 c24 2 37 8 37 18 0 11
-18 14 -90 14 -55 0 -90 -4 -90 -10 0 -6 -50 -117 -112 -246 -92 -195 -114
-233 -123 -220 -7 8 -61 119 -121 246 l-109 230 -88 0 c-67 0 -88 -3 -85 -12z"/>
<path d="M15612 628 c3 -7 22 -15 44 -18 l39 -5 5 -240 c3 -153 10 -247 17
-260 71 -125 339 -141 435 -26 41 48 48 90 48 299 0 114 4 201 10 213 8 13 21
19 45 19 24 0 35 5 35 15 0 12 -19 15 -110 15 -91 0 -110 -3 -110 -15 0 -10
10 -15 34 -15 56 0 58 -7 54 -237 -3 -176 -6 -213 -21 -240 -24 -45 -69 -65
-153 -71 -87 -5 -154 19 -178 66 -20 38 -29 222 -19 367 l8 110 38 3 c24 2 37
8 37 18 0 11 -24 14 -131 14 -100 0 -130 -3 -127 -12z"/>
<path d="M16340 626 c0 -10 13 -16 37 -18 35 -3 38 -6 46 -43 5 -22 7 -143 5
-269 -4 -223 -4 -229 -26 -244 -50 -33 -28 -37 197 -37 121 0 221 2 224 5 3 3
8 38 12 78 6 61 5 72 -8 72 -10 0 -18 -14 -22 -38 -11 -67 -11 -67 -160 -70
l-135 -4 0 257 c0 158 4 264 10 276 8 13 21 19 45 19 24 0 35 5 35 15 0 13
-21 15 -130 15 -106 0 -130 -3 -130 -14z"/>
<path d="M16912 628 c3 -7 22 -15 44 -18 l39 -5 0 -275 0 -275 -38 -9 c-20 -5
-36 -14 -35 -18 3 -9 463 -16 471 -8 3 3 7 38 9 77 4 84 -14 101 -32 31 -17
-64 -28 -68 -162 -68 l-118 0 0 130 0 130 78 0 c101 0 122 -6 122 -35 0 -33
10 -55 25 -55 18 0 16 201 -2 208 -9 2 -13 -7 -13 -25 0 -46 -15 -53 -117 -53
l-93 0 0 120 0 120 53 1 c96 1 160 -3 183 -12 20 -7 24 -16 24 -49 0 -29 4
-40 15 -40 10 0 15 10 15 33 0 17 3 49 6 70 l7 37 -243 0 c-189 0 -241 -3
-238 -12z"/>
</g>
</svg>
